<?xml version="1.0" standalone="no"?><!DOCTYPE svg PUBLIC "-//W3C//DTD SVG 1.1//EN" "http://www.w3.org/Graphics/SVG/1.1/DTD/svg11.dtd"><svg t="1581947062570" class="icon" viewBox="0 0 1024 1024" version="1.1" xmlns="http://www.w3.org/2000/svg" p-id="1948" xmlns:xlink="http://www.w3.org/1999/xlink" width="128" height="128"><defs><style type="text/css"></style></defs><path d="M802.9 153.2H717c0.5 4 0.7 8 0.7 12.1 0 56-45.8 101.8-101.8 101.8H409.7c-56 0-101.8-45.8-101.8-101.8 0-4.1 0.3-8.1 0.7-12.1h-85.9c-20 0-40 20.1-40 40.3v724.7c0 20.1 20 40.3 40 40.3H803c20 0 40-20.1 40-40.3V193.4c-0.1-20.1-20.1-40.2-40.1-40.2z m-75.6 575.6c0 22.1-18.1 40.3-40.3 40.3H338.6c-22.1 0-40.3-18.1-40.3-40.3 0-22.1 18.1-40.3 40.3-40.3H687c22.2 0.1 40.3 18.2 40.3 40.3z m0-158c0 22.1-18.1 40.3-40.3 40.3H338.6c-22.1 0-40.3-18.1-40.3-40.3 0-22.1 18.1-40.3 40.3-40.3H687c22.2 0 40.3 18.1 40.3 40.3z m0-158.1c0 22.1-18.1 40.3-40.3 40.3H338.6c-22.1 0-40.3-18.1-40.3-40.3 0-22.1 18.1-40.3 40.3-40.3H687c22.2 0 40.3 18.1 40.3 40.3z" p-id="1949"></path><path d="M575.1 345h5.9c0.1 0 0.2 0.1 0.2 0.2s-0.1 0.2-0.2 0.2h-5.9c-0.1 0-0.2-0.1-0.2-0.2 0-0.2 0.1-0.2 0.2-0.2zM609 209.9H416.6c-36.3 0-66.1-29.7-66.1-66.1V134c0-36.3 29.7-66.1 66.1-66.1H609c36.3 0 66.1 29.7 66.1 66.1v9.8c0 36.4-29.8 66.1-66.1 66.1z" p-id="1950"></path></svg>